<?xml version="1.0" encoding="utf-8"?>
<!-- Generator: Adobe Illustrator 18.0.0, SVG Export Plug-In . SVG Version: 6.00 Build 0)  -->
<!DOCTYPE svg PUBLIC "-//W3C//DTD SVG 1.1//EN" "http://www.w3.org/Graphics/SVG/1.1/DTD/svg11.dtd">
<svg version="1.1" id="Layer_1" xmlns="http://www.w3.org/2000/svg" xmlns:xlink="http://www.w3.org/1999/xlink" x="0px" y="0px"
	 width="512px" height="512px" viewBox="0 0 512 512" enable-background="new 0 0 512 512" xml:space="preserve">
<g>
	<path fill="#684C4B" d="M455.3,417.9c0.1-11.8,0.5-25,0.9-39c1.1-38.2,2.5-81.4-2.8-109.4c-1.6-8.3-7.2-15.4-15.1-19
		c-6.4-2.9-12.9-6.2-19.2-9.4c-9.7-4.8-19.8-9.9-29.5-13.7c-4.8-2.4-5.9-6.7-4.2-16.5l-0.3-4.6c-1.7-5.4-8-8-11.7-9.5l-1.4-0.6
		c-0.9-0.4-1.9-0.6-2.8-1c0.2-0.6,0.4-1.1,0.6-1.7c0.4,0.1,0.9,0.2,1.4,0.3c0.3,0,0.7,0.1,1,0.1c3.6,0,7.1-1.8,9.7-5
		c2.2-2.8,3.3-5.9,4.3-8.7l3.6-10c0.6-1.8,1.4-3.9,1.6-6.2c0.2-3.1-0.7-6-2.6-8c-0.7-0.8-1.7-1.4-2.7-1.9c2.9-1.7,5.1-4.3,6.5-7.5
		c5.2-12-2.1-29.8-3.6-33.2c-5.9-13.4-16.8-24.5-30.2-30.4c-8.7-3.8-18.8-5.7-30.2-5.7c-1.8,0-3.6,0-5.4,0.1
		c-11.9,0.6-21.5,3.5-29.1,8.9c-3.5,2.4-6.9,3.8-10.2,5.2c-6.1,2.4-12.4,5-17.7,13.7c-7.7,12.6-9.4,28.6-4.4,41.9
		c1.2,3.3,2.6,5.9,4,7.9c-3.1,0.4-5.8,2-7.2,4.6c-0.9,1.6-1,3.3-1.1,4.7c-0.1,1.7-0.1,3.8,0.7,6c0.7,2,2,3.7,3,5l7.7,10
		c1.9,2.5,5.2,6.7,10.2,7.5c0.6,0.1,1.1,0.1,1.6,0.1c0.9,0,1.8-0.2,2.6-0.4c0.4,1,0.9,2,1.3,3.1c-2.2,0.9-4.3,2-6.2,3.5
		c-0.5,0.4-1.1,0.7-1.6,1.1c-1.7,1-4.2,2.5-5.4,5.4l-1.5,4.8c-0.3,4.2-0.3,10.3-0.4,14.4c-3,1.7-6.2,3.1-9.4,4.5
		c-1.1-24.1-2.4-48.7-5.7-64.8c-6.8-33-19.6-56.8-37.8-70.5C202,82.8,182.3,76.8,160,76.8c-3.6,0-7.2,0.2-10.8,0.5
		c-24.4,2-44.6,11.6-57,26.8c-11.5,14.2-19.3,33-23.1,55.8c-3.6,21.5-7.1,60.7-6.9,94.7c-4,4.8-7.2,10.4-9.6,17.2
		c-7.4,20.5-4.6,42.4-2,63.6c0.5,4,1,8,1.4,11.8c3,28.2,4.3,50.3,4.3,70.7H17.9l0,7.9h476.2v-7.9H455.3z M370.4,204.1
		c2,0.8,3.5,1.5,4.7,2.2h-10.5l0.6,4.4c0.6,4.8,0.9,9.6,0.9,14.4h-8.8c0.1-2.1,0-4.3-0.2-6.5c-0.1-0.9-0.4-1.7-0.8-2.4
		c1.9-2,3.7-4,5.3-6.3c1.7-2.5,3.1-5,4.4-7.5c0.9,0.3,1.9,0.6,2.8,1L370.4,204.1z M382.4,167.7l-3.6,10c-0.8,2.3-1.7,4.7-3.1,6.4
		c-1.1,1.4-2.5,2.2-3.7,2.1c1.9-7.8,2.6-15.4,3-22.1c1.2-0.9,2.5-1.7,3.9-2.2c1.8-0.7,3.7-0.7,4.3-0.1c0.3,0.3,0.5,1.1,0.4,1.9
		C383.5,164.8,382.9,166.2,382.4,167.7z M280.5,185.1c-1.8-0.3-3.6-2.4-5.2-4.6l-7.7-10c-0.7-0.9-1.5-1.9-1.8-2.8
		c-0.2-0.7-0.3-1.6-0.2-3c0-0.9,0.1-1.2,0.2-1.4c0-0.1,0.5-0.4,1.1-0.4c0.9-0.1,1.9,0.2,3.2,0.9c2.7,1.4,5,3.4,6.7,5.9
		C277.5,174.5,278.7,179.6,280.5,185.1C280.5,185.1,280.5,185.1,280.5,185.1z M274.4,152.4L274.4,152.4c-0.2,0-2.4-0.4-5.2-7.9
		c-4.1-11.1-2.7-24.5,3.7-35.1c4-6.5,8.3-8.2,13.9-10.5c3.5-1.4,7.6-3,11.8-6c6.4-4.5,14.5-6.9,25-7.5c1.7-0.1,3.3-0.1,5-0.1
		c10.2,0,19.3,1.7,27,5.1c11.6,5.1,21.1,14.7,26.2,26.3c3.8,8.7,6.4,20.4,3.5,27c-1,2.3-2.6,3.7-4.9,4.6c-2,0.7-4.6,1.1-7.6,1.1
		c-12.9,0-30.9-6.8-37.6-9.4c-11.4-4.4-27.2-12.8-37.5-28.2l-6.6-9.9l-0.6,11.9C289.9,128.6,279.1,152.4,274.4,152.4z M283.2,155.5
		c6.7-7.4,11.4-21.7,13.7-31.9c11,12.5,25,19.8,35.6,23.8c10.4,4,23.4,8.4,34.9,9.6v0.6c-0.5,10.7-1,23.2-5.8,35.6l-3.4,7.3
		c-0.9,1.7-2,3.5-3.1,5.2c-2,2.9-4.4,5.4-7,7.6c-4.4,1.4-8.6,3.4-12.7,5.3c-2.1,1-4.2,2-6.3,2.9c-0.6,0.1-1.1,0.1-1.7,0.1
		c-2.2-0.9-4.3-1.9-6.5-3c-4.2-2-8.5-4.1-13.1-5.5c-1-0.3-2-0.4-3-0.2c-1.5-1.6-3-3.3-4.3-5.2c-1.5-2.3-2.9-4.6-4.2-6.9l-3.8-7.3
		c-1.4-2.9-2.6-5.7-3.6-8.5c-0.1-1.1-0.4-2.2-1-3.1h0C284.4,171.6,283.3,162.7,283.2,155.5z M349.1,236.8l-2.6,1.9l-12.5-7.4
		c-0.1,0-0.2-0.1-0.2-0.2c0.3-0.8,0.4-1.7,0.4-2.6c5.4-1.2,10.6-3.3,15.2-6.5c0.1,2.2,0,4.4-0.2,6.8
		C349.1,231.5,349,234.2,349.1,236.8z M307,228.9c-0.1-1.5-0.2-3-0.2-4.4c4.6,2.7,9.7,4.3,15.2,4.8c0,0.5,0.2,1,0.3,1.5l-12.7,7.8
		l-2.5-1.9C307.3,234.2,307.2,231.5,307,228.9z M281,207c0.9-0.5,1.8-1.1,2.5-1.7c1.4-1.1,3.1-2,4.8-2.6c1.7,3.1,3.5,6.2,5.6,9.3
		c1.6,2.4,3.4,4.6,5.4,6.5c0,0.1,0,0.2-0.1,0.2c-0.1,0.9-0.2,1.9-0.2,2.9h-4.5c-1.1,0.1-2.6,0.1-4.2,0.2c-0.4,0-0.8,0-1.2,0.1
		c0-2.2,0.1-4.5,0.3-6.7c0-5.3-5-7-9.2-7.8C280.4,207.3,280.7,207.2,281,207z M76.9,161.2c3.6-21.5,10.8-39,21.5-52.1
		c11.1-13.6,29.4-22.1,51.6-24c3.4-0.3,6.8-0.4,10.2-0.4c14.3,0,35,2.7,52,15.6c16.6,12.6,28.3,34.7,34.8,65.9
		c3.3,15.9,4.6,42.2,5.7,65.5c0,0.2,0,0.5,0,0.7c-2.6,1-5.2,1.9-7.8,2.8c-1.7,0.6-3.4,1.2-5,1.8c-4.5-1.7-9.4-2.9-14.6-3.6
		c-1.1-0.7-2.3-1.2-3.6-1.5c-0.9-0.2-1.8-0.3-2.6-0.4c-1-0.2-1.9-0.1-2.8-0.1c1.9-3.9,3.7-7.9,5.7-11.7c7.4-15,15-30.5,16.2-47.7
		c1.8-24.5-10.8-49.4-31.3-61.9c-15.4-9.4-34.8-13.2-60.5-11.7c-13.1,0.7-23.7,4.1-31.6,9.7c-9.7,7-17,17.9-20,29.9
		c-0.4,1.8-0.9,3.6-1.4,5.5c-4,15.5-9,34.8-1.9,49c1.6,3.2,3.9,6.8,6.3,10.6c5.4,8.5,12.2,19.1,12.3,27.7c0,1.9,0.7,3.5,1.9,4.8
		c-1.4-0.1-2.8,0.2-3.9,0.4c-0.6,0.1-1.2,0.3-1.8,0.3h-0.9c-1,0-2.4,0-3.9,0.5c-13,1-23.3,4.4-31.5,10.3
		C70.3,215.6,73.6,180.9,76.9,161.2z M201.9,198.1c1.4-11.7-1.9-32.3-11.7-40.7c-7.7-6.5-15.3-7.9-24.8-9.6
		c-3.2-0.6-6.6-1.2-10.5-2.1c-10-2.3-15.8-9.3-20.6-16.5l-3.5-5.3l-3.2,5.5c-6.7,11.8-10.3,21.6-11.8,33.1c-0.3,2.6,0.1,5.8,1,9.6
		c0.9,5.8,2.6,11.6,4.8,17.3c0,0.1,0.1,0.2,0.1,0.4c2.9,10.7,1.1,26.7-4.1,38.4c-1.1-10-7.6-20-13.3-29.1c-2.3-3.7-4.5-7.1-5.9-9.9
		c-5.8-11.6-1.2-29.3,2.5-43.5c0.5-1.9,1-3.8,1.4-5.6c2.5-10.1,8.9-19.6,17-25.5c6.7-4.8,15.9-7.6,27.4-8.2c24.1-1.4,42.1,2,56,10.5
		c18.1,11.1,29.1,33,27.6,54.7c-1.1,15.6-8.1,29.8-15.4,44.8c-2.4,5-4.9,10.1-7.2,15.2l-3,7.3c-0.1,0.4-0.3,0.7-0.4,1.1
		c-0.5,1.3-0.9,2.5-1.3,3.8c-0.3-1.8-0.6-3.7-0.9-5.7l-1.1-9.3v-0.3C199.8,217.4,200.9,206.4,201.9,198.1z M193.8,199.6
		c-0.6,5.1-1.1,11-1.2,17.3c-1.1-3-1.9-6.5-2.7-10.5C191.4,204,192.7,201.8,193.8,199.6z M187.5,194.5c-1.2,3.3-6,9.9-6,9.9
		c-5.6,6.9-14.2,11.3-22.8,11.3h-0.2c-8.3,0-15.6-4.1-20.4-11.5c-0.6-0.9-1.2-1.9-1.8-2.8l-4.5-8.2c-1-2.1-1.9-4.2-2.8-6.3
		c-0.6-2.3-1.3-4.6-1.9-6.7c-1-3.5-2-6.8-2.6-9.6c-0.4-2.5-0.7-5-0.8-7.4c1.1-8.4,3.5-16,7.8-24.4c5,6.4,11.6,12.3,21.6,14.6
		c4,0.9,7.6,1.6,10.8,2.2c9.1,1.7,15.1,2.8,21.2,7.9c3.3,2.8,5.7,7.9,7.2,13.5h-0.2C191.5,182.3,190.4,188.1,187.5,194.5z
		 M213.6,243c0-0.7,0-1.6,0.2-2.3c0-0.2,0.1-0.4,0.2-0.5c0-0.1,0.1-0.2,0.2-0.2c0,0,0.1-0.1,0.2-0.2l0.1-0.1
		c0.7-0.3,1.9-0.5,3.3-0.3c0.7,0.1,1.4,0.2,2.1,0.4c0.6,0.1,1.1,0.4,1.5,0.8c0.2,0.2,0.4,0.4,0.5,0.7c0,0.1,0.1,0.3,0.2,0.4
		c0.1,0.4,0.2,0.7,0.2,1.1v0.2c0,0.6-0.1,1.1-0.1,1.7c-3.1,1.7-5.9,3.6-8.6,5.7h-0.1L213.6,243z M111,244.9v14.6
		c0,9.1,0,18.3,0,27.4c-2.6-0.1-5.2,0.2-7.5,0.5c0.2-5.8,0.3-11.1,0.4-16.3c0-3.9,0.1-7.6,0.2-11.5l0.3-7.9c0.1-1.8,0.2-3.6,0.4-5.5
		l0.1-1.6v-0.2h0.2c0.5,0,1,0,1.5,0c0.9,0,2-0.2,3-0.4c0.4-0.1,1-0.2,1.4-0.3v0.2C111,244.2,111,244.5,111,244.9z M95.1,417.8
		l-30.9,0.1c0-20.7-1.4-43.1-4.4-71.6c-0.4-3.9-0.9-7.9-1.4-11.9c-2.5-20.3-5.2-41.3,1.6-60c2-5.7,4.8-10.4,8.1-14.4
		c0,0,6.1-6.5,9.2-8c5.4-3.3,11.8-5.6,19.6-6.7c0,0.1,0,0.2,0,0.2l-0.1,1.6c-0.1,1.6-0.2,3.1-0.3,4.6l-0.6,7.9
		c-0.7,10.2-1.4,20.4-1.9,30.2c-0.1,0-0.2,0.1-0.3,0.2c-0.3,0.1-0.6,0.2-0.8,0.4c-0.4,0.2-0.7,0.4-1.1,0.6c-0.4,0.2-0.8,0.4-1.2,0.6
		c-0.4,0.2-0.7,0.5-1.1,0.7c-0.3,0.2-0.7,0.5-1,0.7c-0.2,0.2-0.5,0.3-0.7,0.5c-0.5,0.4-1,0.9-1.5,1.4c-0.2,0.2-0.5,0.4-0.7,0.7
		c0,0,0,0,0,0l-0.2,0.2c-0.7,0.8-1.5,1.7-2,2.7c-0.1,0.2-0.2,0.4-0.3,0.6c-4.5,7.9-0.3,20.3,3.5,31.3c1.2,3.5,2.3,6.7,2.8,9.1
		c0,0.3,0.1,0.6,0.2,0.9c1.4,6.3,2.7,12.6,3.9,19C95.2,377.6,95.8,396.8,95.1,417.8z M102.9,417.9c0.1-3.5,0.2-7,0.3-10.4
		c0.9,3.5,1.8,6.9,2.8,10.4H102.9z M114,417.6c-4.8-16-7.9-32.9-10.9-49.2c-0.6-3.4-1.3-6.8-1.9-10.3c0-0.1,0-0.2,0-0.2
		c-1.4-7.5-2.6-13.7-3.9-19.2c-0.1-0.3-0.1-0.6-0.2-0.9c-0.6-2.8-1.8-6.2-3.1-9.8c-2.8-8.1-7-20.4-4-25.2c0.1-0.2,0.2-0.3,0.3-0.4
		c0.4-0.6,0.9-1.2,1.4-1.7c0.3-0.3,0.7-0.6,1.1-0.9c0.4-0.3,0.7-0.6,1.1-0.8c0.5-0.3,1-0.6,1.5-0.9c0.3-0.2,0.6-0.4,0.9-0.5
		c0.9-0.4,1.8-0.7,2.8-1c0.2-0.1,0.3-0.1,0.5-0.2c0,0,0.1,0,0.2,0c0.6-0.2,1.1-0.3,1.7-0.4c0.2,0,0.3-0.1,0.5-0.1
		c2.6-0.5,5.1-0.6,7.1-0.6c2,0,4,0.2,6,0.4c0.4,0.1,0.8,0.1,1.2,0.2c0.7,0.1,1.4,0.3,2.1,0.4c0.4,0.1,0.7,0.1,1.1,0.2
		c0.9,0.2,1.9,0.4,2.8,0.7c0.6,0.2,1.1,0.3,1.7,0.5c0.4,0.1,0.7,0.2,1.1,0.4c0.6,0.2,1.1,0.4,1.7,0.6c0.4,0.2,0.7,0.3,1,0.4
		c0.5,0.2,1,0.4,1.5,0.6c0.4,0.2,0.7,0.4,1.1,0.6c0.4,0.2,0.8,0.4,1.2,0.6c0.4,0.3,0.9,0.6,1.3,0.8c0.2,0.2,0.5,0.3,0.7,0.5
		c0.8,0.6,1.6,1.3,2.4,2c0.9,0.8,1.8,1.7,2.8,2.7c1.5,1.5,3.1,3.1,4.8,4.5c0.2,0.2,0.5,0.3,0.7,0.5c0.7,0.5,1.3,1.1,2.1,1.5
		c0.4,0.3,1,0.6,1.5,0.8c0.5,0.3,1,0.6,1.6,0.9c0,0,0.1,0,0.1,0c1,0.4,2,0.8,3.1,1.1c0.3,0,0.5,0.1,0.8,0.2
		c3.1,0.8,6.5,1.3,10.2,1.3c7.2,0,14.8-1.6,20.3-4.2c2.2-1.1,4.3-2.4,6.3-3.9c3.5-2.5,6.8-5.3,10-8.1c-1.3,22.9-0.9,51.9-0.2,84.3
		c0.2,11.5,0.5,22.4,0.6,31.9L114,417.6z M205.3,263.5c-2.2,6.8-3.7,15.7-4.7,26.3c0,0,0,0-0.1,0.1c-0.2,0.1-0.3,0.3-0.5,0.4
		c-0.2,0.2-0.5,0.4-0.7,0.6c-1.1,1-2.3,2-3.4,3c-0.3,0.2-0.6,0.5-0.8,0.7c-2.8,2.5-5.5,4.8-8.2,6.9c-2.2,1.7-4.5,3.3-6.9,4.4
		c-1.1,0.5-2.2,1-3.5,1.4c-0.2,0.1-0.4,0.1-0.7,0.2c-1.1,0.3-2.2,0.6-3.3,0.9c-0.2,0-0.5,0.1-0.8,0.2c-1.2,0.2-2.4,0.4-3.7,0.6
		c-0.2,0-0.4,0.1-0.6,0.1c-1.4,0.2-2.9,0.2-4.3,0.2c-0.9,0-1.7,0-2.5-0.1c-0.3,0-0.7,0-1,0c-0.7-0.1-1.3-0.2-2-0.2
		c-0.5-0.1-1-0.2-1.5-0.3c-0.5-0.1-1-0.2-1.5-0.4c-1-0.2-1.9-0.6-2.8-0.9c-0.4-0.2-0.8-0.4-1.2-0.6c-0.3-0.2-0.7-0.4-1-0.6
		c-0.5-0.3-1-0.7-1.5-1.1c-0.2-0.2-0.4-0.3-0.6-0.4c-1.3-1.1-2.6-2.4-3.9-3.7c-0.9-0.9-1.9-1.9-2.9-2.8c-1-0.9-2-1.8-3.2-2.7
		c-0.2-0.2-0.5-0.3-0.7-0.5c-0.6-0.4-1.1-0.7-1.8-1.1c-0.3-0.2-0.6-0.3-0.8-0.4c0,0-0.1-0.1-0.1-0.1c-0.2-0.1-0.5-0.3-0.7-0.4
		c-0.5-0.2-1-0.5-1.5-0.7c-0.2-0.1-0.4-0.2-0.6-0.3c-0.6-0.3-1.3-0.6-1.9-0.8c-0.3-0.1-0.6-0.2-0.8-0.3c-0.2-0.1-0.3-0.1-0.4-0.2
		c0,0,0,0-0.1,0c-1.3-0.5-2.7-0.9-4.1-1.3c0,0,0,0-0.1,0c-1.6-0.5-3.2-0.8-4.9-1.1c-0.2,0-0.3-0.1-0.5-0.1l0-43.2
		c0-0.6,0-1.5-0.1-2.4c13.9-4.8,15.6-16.9,16.5-29.1c6.1,6.6,14.1,10.2,23.1,10.2h0.2c9.1,0,17.9-3.6,24.8-9.7
		c1.9,7.6,4.7,14.2,9.9,19c0.7,6.8,1.7,12.8,2.9,17.8c0,0,2,7.6,7,7.8h0.1l2.1,0C205.4,260.1,205.4,261.9,205.3,263.5z M316,417.9
		l-50.9,0l-7.9-1.1l-15.2,0.4c-0.6-21.2-0.6-65.7,0-95.5l0.7-22.6l-3.9,0.4l-4-0.2l-0.6,118l-4.4,0.1l-7.8,0.2v0.2h-6l-7.8-1.3
		c0-9.4-0.3-20.2-0.5-31.5c-0.6-27.9-1.4-64.2,0.7-91.2c1.3-15.5,3.3-24.4,5-29.4v-0.1c0.2-0.4,0.3-0.8,0.5-1.2
		c0.1-0.3,0.2-0.6,0.3-0.8c0.2-0.5,0.4-0.9,0.6-1.3c0-0.1,0.1-0.2,0.2-0.3c0.5-0.9,1.1-1.7,1.6-2.4l0.1-0.1c0.1-0.1,0.1-0.1,0.1-0.1
		c2.7-3.1,13.1-8.6,13.1-8.6c3.1-1.5,6.4-2.8,9.8-4.1l21.3-7.9c5.1-2.1,10.2-4.4,15-7.3l1.9-1.1v-2.2c0-2.6,0-7.1,0.1-11.3
		c0.6-0.1,1.1-0.3,1.6-0.5c0.8,0.2,1.7,0.4,2.2,0.6c-0.6,10-0.2,19.5,1,29v7.4l3.8,13c2.7,11.3,6.2,22.5,9.9,33.8l18.3,62.6
		c0.8,4,1.5,8.1,2.1,12.2L316,417.9z M331.7,417.9h-7.9l0.7-49.9l-2.4-8.1c-3.7-18.7-9.6-36.5-15.4-53.8c-1-3.1-2-6.2-3.1-9.3
		l-9.6-33.1c-1.5-6.5-2.8-12.9-3.7-19.5l0-14.4h0.3c1.6-0.1,3.2-0.2,4.1-0.2l3.9,0l0.5,9l-0.3,1.9l10.2,7.6l0.2,0.2l2.2-1.3
		c5.8-2.8,11.4-6.2,16.6-10l0.8,0.5c5,3.7,10.4,6.8,16,9.5l2.2,1.3l10-7.5l0.3-0.2l-0.2-2l0.1-5.4h7.8v10.7
		c-0.6,5.4-1.5,10.8-2.6,16.2l-18.7,64.2c-2.9,9.1-5.7,18.2-8,27.5L331,368L331.7,417.9z M448.4,378.7c-0.4,14.1-0.8,27.3-0.9,39.2
		h-26.1c0.8-27.5,0.5-95.7-0.6-118.5l-7.9,0.4c1.1,22.8,1.4,91,0.6,118.2h-73.9l-0.7-43.9c1.2-6.8,2.7-13.6,4.4-20.4l7.9-27.1
		c1.3-4.2,2.7-8.3,4-12.4c5.5-16.8,11-34,14.6-51.5l2.9-9.8l0-8.1c1.1-10,1.5-20.2,0.6-30.5h3.5c-0.7,6.6-0.1,15.6,9.4,20.4
		c9.7,3.9,19.6,8.8,29.2,13.6c6.4,3.2,13,6.5,19.5,9.5c5.6,2.6,9.5,7.5,10.6,13.3C450.8,298.1,449.5,340.9,448.4,378.7z"/>
	<path fill="#684C4B" d="M333.8,281.5c-1.7-0.8-3.4-0.9-4.5-0.8c-2.1,0-5.7,0-8.4,2.3c-4,3.3-3.8,8.9-2.2,13
		c0.3,0.7,0.6,1.5,1.3,2.3c0.8,0.9,2.2,2.1,4.8,2.4c0.4,0.1,0.9,0.1,1.3,0.1c5.7,0,10.8-4.5,11.7-10.2
		C338.5,286.7,336.8,283,333.8,281.5z M326.1,292.9l-0.1,0c-0.6-1.8-0.6-3.4,0-3.8c0.6-0.5,2.4-0.5,3.4-0.5c0.2,0,0.5,0,0.7,0
		c0,0.2,0,0.5,0,0.8C329.8,291.2,327.9,292.9,326.1,292.9z"/>
	<path fill="#684C4B" d="M337.9,316.3c0.6-3.9-1-7.5-4.1-9c-1.6-0.8-3.3-0.8-4.4-0.8c0,0,0,0,0,0c-2.1,0-5.7,0-8.4,2.3
		c-3.4,2.8-4.2,7.8-2.2,13c0.3,0.7,0.6,1.5,1.3,2.3c0.8,0.9,2.2,2.1,4.8,2.4c0.4,0.1,0.9,0.1,1.3,0.1
		C331.8,326.5,337,322,337.9,316.3z M326.1,318.7l-0.1,0c-0.6-1.8-0.5-3.4,0-3.8c0.6-0.5,2.4-0.5,3.4-0.5c0.2,0,0.5,0,0.7,0
		c0,0.2,0,0.5,0,0.8C329.8,317,327.9,318.7,326.1,318.7z"/>
	<path fill="#684C4B" d="M320.4,270.5c1.9,1.4,4.1,2.1,6.6,2.1c3.8,0,7.5-1.7,9.7-4.7c2.4-3.1,2.8-7.1,0.8-9.9
		c-1.1-1.5-2.5-2.3-3.5-2.9c-2.5-1.4-5.3-2.7-8.5-2.1c-4.3,0.8-7.4,4.8-8.2,10.3c-0.1,0.7-0.2,1.7,0,2.7
		C317.6,267.3,318.3,269,320.4,270.5z M327.2,260.9c0.8,0,2.2,0.8,3.1,1.2c0.2,0.1,0.4,0.2,0.6,0.3c-0.1,0.2-0.2,0.4-0.4,0.7
		c-0.8,1-2.1,1.6-3.5,1.6c-0.5,0-1.1-0.1-1.8-0.5C325.5,262.4,326.4,261,327.2,260.9z"/>
	<path fill="#684C4B" d="M216.4,258.5c-0.5,0.6-1.1,1.4-1.6,2.4C215.5,259.5,216,258.8,216.4,258.5z"/>
</g>
</svg>
